<svg width="16" height="16" viewBox="0 0 16 16" fill="none" xmlns="http://www.w3.org/2000/svg">
<g clip-path="url(#clip0)">
<path d="M0.217892 7.47396L4.97923 2.71263C5.26973 2.42213 5.74086 2.42213 6.03137 2.71263C6.32193 3.00319 6.32193 3.4742 6.03137 3.76476L2.54005 7.25607H15.256C15.6669 7.25607 16 7.58919 16 8.00003C16 8.41082 15.6669 8.74399 15.256 8.74399H2.54005L6.03125 12.2353C6.32181 12.5259 6.32181 12.9969 6.03125 13.2874C5.88603 13.4326 5.69557 13.5053 5.50518 13.5053C5.31478 13.5053 5.12439 13.4326 4.97911 13.2874L0.217892 8.5261C-0.07267 8.23554 -0.07267 7.76453 0.217892 7.47396Z" fill="white"/>
</g>
<defs>
<clipPath id="clip0">
<rect width="16" height="16" fill="white" transform="matrix(-1 0 0 1 16 0)"/>
</clipPath>
</defs>
</svg>
