<svg width="52" height="52" viewBox="0 0 52 52" fill="none" xmlns="http://www.w3.org/2000/svg">
<rect width="52" height="52" transform="matrix(-1 0 0 1 52 0)" fill="#F6F9FD"/>
<g clip-path="url(#clip0)">
<path d="M16.2724 25.3424L22.224 19.3907C22.5872 19.0276 23.1761 19.0276 23.5392 19.3907C23.9024 19.7539 23.9024 20.3427 23.5392 20.7059L19.1751 25.07H35.0701C35.5836 25.07 36 25.4864 36 25.9999C36 26.5134 35.5836 26.9299 35.0701 26.9299H19.1751L23.5391 31.294C23.9023 31.6572 23.9023 32.246 23.5391 32.6092C23.3575 32.7907 23.1195 32.8816 22.8815 32.8816C22.6435 32.8816 22.4055 32.7907 22.2239 32.6092L16.2724 26.6575C15.9092 26.2943 15.9092 25.7056 16.2724 25.3424Z" fill="#264B87"/>
</g>
<defs>
<clipPath id="clip0">
<rect width="20" height="20" fill="white" transform="matrix(-1 0 0 1 36 16)"/>
</clipPath>
</defs>
</svg>
