<svg width="52" height="52" viewBox="0 0 52 52" fill="none" xmlns="http://www.w3.org/2000/svg">
<rect width="52" height="52" fill="white"/>
<g clip-path="url(#clip0)">
<path d="M35.7276 25.3424L29.776 19.3907C29.4128 19.0276 28.8239 19.0276 28.4608 19.3907C28.0976 19.7539 28.0976 20.3427 28.4608 20.7059L32.8249 25.07H16.9299C16.4164 25.07 16 25.4864 16 26C16 26.5134 16.4164 26.9299 16.9299 26.9299H32.8249L28.4609 31.2941C28.0977 31.6573 28.0977 32.246 28.4609 32.6092C28.6425 32.7907 28.8805 32.8816 29.1185 32.8816C29.3565 32.8816 29.5945 32.7907 29.7761 32.6092L35.7276 26.6576C36.0908 26.2943 36.0908 25.7056 35.7276 25.3424Z" fill="#264B87"/>
</g>
<defs>
<clipPath id="clip0">
<rect width="20" height="20" fill="white" transform="translate(16 16)"/>
</clipPath>
</defs>
</svg>
