<svg width="20" height="20" viewBox="0 0 20 20" fill="none" xmlns="http://www.w3.org/2000/svg">
<g clip-path="url(#clip0)">
<path d="M9.34236 0.272365L3.39069 6.22404C3.02757 6.58716 3.02757 7.17608 3.39069 7.53921C3.75389 7.90241 4.34266 7.90241 4.70586 7.53921L9.07 3.17507V19.0701C9.07 19.5836 9.48639 20 9.99995 20C10.5134 20 10.9299 19.5836 10.9299 19.0701V3.17507L15.294 7.53906C15.6572 7.90226 16.246 7.90226 16.6092 7.53906C16.7907 7.35753 16.8816 7.11947 16.8816 6.88147C16.8816 6.64348 16.7907 6.40549 16.6092 6.22389L10.6575 0.272365C10.2943 -0.0908359 9.70557 -0.0908359 9.34236 0.272365Z" fill="black"/>
</g>
<defs>
<clipPath id="clip0">
<rect width="20" height="20" fill="white" transform="translate(0 20) rotate(-90)"/>
</clipPath>
</defs>
</svg>
