<svg width="19" height="19" viewBox="0 0 19 19" fill="none" xmlns="http://www.w3.org/2000/svg">
<path d="M9.5 0C4.26165 0 0 4.26165 0 9.5C0 14.7383 4.26165 19 9.5 19C14.7383 19 19 14.7383 19 9.5C19 4.26165 14.7383 0 9.5 0ZM9.5 17C5.3645 17 2 13.6355 2 9.5C2 5.3645 5.3645 2 9.5 2C13.6355 2 17 5.3645 17 9.5C17 13.6355 13.6355 17 9.5 17Z" fill="#264B87"/>
<path d="M14.5997 9.20658H10.8898C10.755 8.98693 10.5697 8.80158 10.35 8.66678V4.20693C10.35 3.73748 9.96947 3.35693 9.50002 3.35693C9.03056 3.35693 8.65001 3.73748 8.65001 4.20693V8.66678C8.18276 8.95363 7.87036 9.46928 7.87036 10.0566C7.87036 10.9552 8.60146 11.6862 9.50002 11.6862C10.0873 11.6862 10.603 11.3738 10.8898 10.9066H14.5997C15.0691 10.9066 15.4497 10.526 15.4497 10.0566C15.4497 9.58713 15.0691 9.20658 14.5997 9.20658Z" fill="#264B87"/>
</svg>
