<svg width="46" height="46" viewBox="0 0 46 46" fill="none" xmlns="http://www.w3.org/2000/svg">
<g clip-path="url(#clip0)">
<path d="M45.5006 22.9998C45.5006 35.4261 35.4271 45.4996 23.0008 45.4996C10.5745 45.4996 0.500977 35.4261 0.500977 22.9998C0.500977 10.5735 10.5745 0.5 23.0008 0.5C35.4271 0.5 45.5006 10.5735 45.5006 22.9998Z" stroke="#E2E2E2"/>
<g clip-path="url(#clip1)">
<path d="M17.6875 23.0001C17.6875 22.0092 17.9605 21.081 18.4348 20.2862V16.9148H15.0634C13.7253 18.6526 13 20.7705 13 23.0001C13 25.2298 13.7253 27.3477 15.0634 29.0855H18.4348V25.7141C17.9605 24.9193 17.6875 23.991 17.6875 23.0001Z" fill="#FBBD00"/>
<path d="M23 28.3126L20.6562 30.6563L23 33.0001C25.2296 33.0001 27.3475 32.2747 29.0854 30.9367V27.5688H25.7175C24.9158 28.0449 23.9836 28.3126 23 28.3126Z" fill="#0F9D58"/>
<path d="M18.4346 25.7144L15.0632 29.0858C15.3281 29.4299 15.6166 29.7594 15.9287 30.0716C17.8175 31.9603 20.3287 33.0005 22.9998 33.0005V28.313C21.0613 28.313 19.3624 27.2692 18.4346 25.7144Z" fill="#31AA52"/>
<path d="M33 22.9998C33 22.3914 32.9449 21.7819 32.8363 21.1882L32.7483 20.7078H23V25.3953H27.7442C27.2835 26.3117 26.5752 27.0594 25.7175 27.5686L29.0853 30.9364C29.4294 30.6715 29.7589 30.383 30.0711 30.0709C31.9598 28.1821 33 25.6709 33 22.9998Z" fill="#3C79E6"/>
<path d="M26.7565 19.2435L27.1708 19.6578L30.4854 16.3432L30.0711 15.9289C28.1823 14.0402 25.6711 13 23 13L20.6562 15.3438L23 17.6875C24.419 17.6875 25.7531 18.2401 26.7565 19.2435Z" fill="#CF2D48"/>
<path d="M23.0003 17.6875V13C20.3292 13 17.818 14.0402 15.9292 15.9289C15.617 16.2411 15.3285 16.5705 15.0636 16.9146L18.435 20.2861C19.3629 18.7312 21.0618 17.6875 23.0003 17.6875Z" fill="#EB4132"/>
</g>
</g>
<defs>
<clipPath id="clip0">
<rect width="46" height="46" fill="white"/>
</clipPath>
<clipPath id="clip1">
<rect width="20" height="20" fill="white" transform="translate(13 13)"/>
</clipPath>
</defs>
</svg>
