<svg width="19" height="19" viewBox="0 0 19 19" fill="none" xmlns="http://www.w3.org/2000/svg">
<path d="M13.3371 13.6189C13.1629 13.5977 13.0058 13.7225 12.9855 13.8963C12.9653 14.0702 13.0894 14.2276 13.2629 14.2478C16.593 14.6399 18.3667 15.6963 18.3667 16.3084C18.3667 17.1678 14.9935 18.3667 9.5 18.3667C4.00647 18.3667 0.633333 17.1678 0.633333 16.3084C0.633333 15.6963 2.40698 14.6399 5.73705 14.2478C5.91058 14.2276 6.03472 14.0699 6.01445 13.8963C5.99387 13.7225 5.8368 13.5971 5.66295 13.6189C2.32877 14.0116 0 15.1174 0 16.3084C0 17.646 3.26325 19 9.5 19C15.7367 19 19 17.646 19 16.3084C19 15.1174 16.6712 14.0116 13.3371 13.6189Z" fill="#264B87"/>
<path d="M9.44393 17.3397L14.3019 10.3233C16.124 7.89418 15.8605 3.90133 13.7379 1.77903C12.591 0.63175 11.0659 0 9.44393 0C7.82196 0 6.2969 0.63175 5.14993 1.77872C3.02731 3.90102 2.76385 7.89387 4.57866 10.3135L9.44393 17.3397ZM9.49998 3.8C10.7223 3.8 11.7166 4.79465 11.7166 6.01667C11.7166 7.23868 10.7223 8.23333 9.49998 8.23333C8.27765 8.23333 7.28331 7.23868 7.28331 6.01667C7.28331 4.79465 8.27765 3.8 9.49998 3.8Z" fill="#264B87"/>
</svg>
