<svg width="14" height="14" viewBox="0 0 14 14" fill="none" xmlns="http://www.w3.org/2000/svg">
<path d="M12.7293 0.00875853C12.7148 0.00758362 12.7025 0 12.6873 0H6.4165C5.45168 0 4.6665 0.785172 4.6665 1.75V2.3333C4.6665 2.65533 4.92776 2.9167 5.2498 2.9167C5.57184 2.9167 5.8331 2.65533 5.8331 2.3333V1.75C5.8331 1.4286 6.095 1.1667 6.4165 1.1667H9.13422L8.95627 1.2262C8.48384 1.38951 8.1665 1.83459 8.1665 2.3333V11.0833H6.4165C6.095 11.0833 5.8331 10.8214 5.8331 10.5V9.3333C5.8331 9.01137 5.57184 8.75 5.2498 8.75C4.92776 8.75 4.6665 9.01137 4.6665 9.3333V10.5C4.6665 11.4648 5.45168 12.25 6.4165 12.25H8.1665V12.8333C8.1665 13.4767 8.68967 14 9.3331 14C9.45796 14 9.57642 13.9819 9.7047 13.9422L13.2094 12.7738C13.6825 12.6105 13.9998 12.1654 13.9998 11.6667V1.1667C13.9998 0.486526 13.4135 -0.0466766 12.7293 0.00875853Z" fill="#264B87"/>
<path d="M6.2457 5.42091L3.9124 3.08761C3.74556 2.92077 3.49477 2.87057 3.27655 2.96104C3.05898 3.0514 2.9167 3.26438 2.9167 3.50001V5.25001H0.583298C0.261368 5.25001 0 5.51138 0 5.83331C0 6.15534 0.261368 6.41671 0.583298 6.41671H2.9167V8.16671C2.9167 8.40234 3.05898 8.61521 3.27655 8.70568C3.49477 8.79604 3.74556 8.74595 3.9124 8.57911L6.2457 6.2457C6.47385 6.01766 6.47385 5.64906 6.2457 5.42091Z" fill="#264B87"/>
</svg>
