<svg width="14" height="14" viewBox="0 0 14 14" fill="none" xmlns="http://www.w3.org/2000/svg">
<path d="M10.8891 6.45372L4.65896 0.223657C4.51486 0.0794465 4.3225 0 4.1174 0C3.9123 0 3.71994 0.0794465 3.57584 0.223657L3.11703 0.682352C2.81848 0.981244 2.81848 1.46703 3.11703 1.76547L8.34867 6.9971L3.11123 12.2345C2.96713 12.3787 2.88757 12.571 2.88757 12.776C2.88757 12.9812 2.96713 13.1734 3.11123 13.3178L3.57004 13.7763C3.71425 13.9206 3.90649 14 4.1116 14C4.3167 14 4.50906 13.9206 4.65315 13.7763L10.8891 7.54059C11.0336 7.39592 11.1129 7.20277 11.1124 6.99744C11.1129 6.79131 11.0336 6.59827 10.8891 6.45372Z" fill="white"/>
</svg>
