<svg width="14" height="14" viewBox="0 0 14 14" fill="none" xmlns="http://www.w3.org/2000/svg">
<path d="M10.7691 11.8463C10.7691 12.1437 10.8746 12.3974 11.0848 12.6075C11.2949 12.8179 11.5489 12.9232 11.8464 12.9232C12.1435 12.9232 12.3974 12.8179 12.6076 12.6075C12.8179 12.3974 12.9232 12.1437 12.9232 11.8463C12.9232 11.5489 12.818 11.2951 12.6076 11.0848C12.3974 10.8746 12.1435 10.7693 11.8464 10.7693C11.5489 10.7693 11.2949 10.8746 11.0848 11.0848C10.8746 11.2951 10.7691 11.5489 10.7691 11.8463Z" fill="#264B87"/>
<path d="M13.8401 2.31357C13.7335 2.20699 13.6074 2.15368 13.4615 2.15368H3.35699C3.3513 2.11446 3.33869 2.043 3.31906 1.93924C3.29944 1.83542 3.28405 1.75273 3.27283 1.69097C3.26154 1.62947 3.24062 1.55509 3.20971 1.46816C3.17885 1.38116 3.1424 1.31239 3.10035 1.26202C3.05836 1.2114 3.00228 1.16805 2.93214 1.13148C2.86207 1.09514 2.78209 1.07687 2.69239 1.07687H0.538566C0.392638 1.07687 0.266454 1.13027 0.159896 1.23671C0.0533085 1.34327 0 1.46954 0 1.61535C0 1.76116 0.0533085 1.88737 0.159896 1.99393C0.266542 2.10052 0.392756 2.15377 0.538566 2.15377H2.25472L3.74382 9.07814C3.73268 9.10053 3.67519 9.207 3.57137 9.39781C3.46761 9.58862 3.3849 9.75541 3.32325 9.89842C3.26157 10.0416 3.23072 10.1523 3.23072 10.2308C3.23072 10.3766 3.28403 10.5028 3.39055 10.6096C3.49726 10.7158 3.62341 10.7693 3.76925 10.7693H4.3077H11.8462H12.3843C12.5301 10.7693 12.6564 10.7159 12.7629 10.6096C12.8696 10.5029 12.9228 10.3766 12.9228 10.2308C12.9228 10.085 12.8696 9.95871 12.7629 9.85221C12.6564 9.74571 12.5301 9.69226 12.3843 9.69226H4.64411C4.77878 9.42298 4.84609 9.24369 4.84609 9.15393C4.84609 9.09767 4.83908 9.03594 4.82502 8.96878C4.81096 8.90162 4.79417 8.82718 4.77454 8.74573C4.75489 8.66464 4.74233 8.60431 4.73673 8.565L13.5206 7.53859C13.6607 7.52164 13.7757 7.46156 13.8655 7.35765C13.9552 7.25398 14 7.13481 14 7.00011V2.69233C13.9999 2.54652 13.9468 2.42031 13.8401 2.31357Z" fill="#264B87"/>
<path d="M3.23068 11.8463C3.23068 12.1437 3.3358 12.3974 3.54617 12.6075C3.75661 12.8179 4.0103 12.9232 4.30767 12.9232C4.60486 12.9232 4.8587 12.8179 5.06899 12.6075C5.27936 12.3974 5.38459 12.1437 5.38459 11.8463C5.38459 11.5489 5.27945 11.2951 5.06899 11.0848C4.85867 10.8746 4.60486 10.7693 4.30767 10.7693C4.01033 10.7693 3.75649 10.8746 3.54617 11.0848C3.33591 11.2951 3.23068 11.5489 3.23068 11.8463Z" fill="#264B87"/>
</svg>
