<svg width="46" height="46" viewBox="0 0 46 46" fill="none" xmlns="http://www.w3.org/2000/svg">
<path d="M45.5 23C45.5 35.4264 35.4264 45.5 23 45.5C10.5736 45.5 0.5 35.4264 0.5 23C0.5 10.5736 10.5736 0.5 23 0.5C35.4264 0.5 45.5 10.5736 45.5 23Z" stroke="#3D769C"/>
<path fill-rule="evenodd" clip-rule="evenodd" d="M21.9139 31.1592H23.3869C23.3869 31.1592 23.8319 31.1136 24.059 30.8846C24.2681 30.6745 24.2614 30.2798 24.2614 30.2798C24.2614 30.2798 24.2327 28.432 25.15 28.1599C26.0542 27.8919 27.2154 29.9457 28.4462 30.7355C29.3769 31.3331 30.0842 31.2021 30.0842 31.2021L33.3751 31.1592C33.3751 31.1592 35.0966 31.0601 34.2803 29.7947C34.2134 29.6912 33.805 28.8586 31.8335 27.1478C29.77 25.3573 30.0464 25.6469 32.532 22.5496C34.0458 20.6634 34.651 19.5118 34.462 19.0186C34.2817 18.5489 33.1683 18.673 33.1683 18.673L29.4629 18.6946C29.4629 18.6946 29.1882 18.6596 28.9845 18.7734C28.7855 18.8851 28.6573 19.1453 28.6573 19.1453C28.6573 19.1453 28.0709 20.6049 27.2887 21.8463C25.6387 24.4656 24.979 24.6038 24.7094 24.4412C24.0821 24.0621 24.2387 22.9184 24.2387 22.1058C24.2387 19.5675 24.6505 18.5091 23.4368 18.2352C23.034 18.1441 22.7376 18.0841 21.7075 18.0744C20.3854 18.0616 19.2663 18.0782 18.6327 18.3684C18.2112 18.5614 17.886 18.9914 18.0841 19.0161C18.329 19.0468 18.8836 19.1559 19.1777 19.5303C19.5574 20.0132 19.544 21.0978 19.544 21.0978C19.544 21.0978 19.7621 24.0859 19.0345 24.4572C18.535 24.7117 17.8499 24.1919 16.3789 21.8156C15.6252 20.5984 15.0561 19.2529 15.0561 19.2529C15.0561 19.2529 14.9464 19.0014 14.7507 18.8669C14.5132 18.704 14.1813 18.6521 14.1813 18.6521L10.6602 18.6736C10.6602 18.6736 10.1316 18.6874 9.93759 18.9023C9.76497 19.0934 9.92388 19.4887 9.92388 19.4887C9.92388 19.4887 12.6805 25.518 15.8018 28.5565C18.6638 31.3422 21.9139 31.1592 21.9139 31.1592Z" fill="#3D769C"/>
</svg>
