<svg width="80" height="56" viewBox="0 0 80 56" fill="none" xmlns="http://www.w3.org/2000/svg">
<path d="M76.6 5.39636C74.43 1.46618 72.075 0.743273 67.28 0.468364C62.49 0.137455 50.445 0 40.01 0C29.555 0 17.505 0.137455 12.72 0.463273C7.935 0.743273 5.575 1.46109 3.385 5.39636C1.15 9.32145 0 16.0822 0 27.9847C0 27.9949 0 28 0 28C0 28.0102 0 28.0153 0 28.0153V28.0255C0 39.8771 1.15 46.6887 3.385 50.5731C5.575 54.5033 7.93 55.216 12.715 55.5469C17.505 55.832 29.555 56 40.01 56C50.445 56 62.49 55.832 67.285 55.552C72.08 55.2211 74.435 54.5084 76.605 50.5782C78.86 46.6938 80 39.8822 80 28.0305C80 28.0305 80 28.0153 80 28.0051C80 28.0051 80 27.9949 80 27.9898C80 16.0822 78.86 9.32145 76.6 5.39636ZM30 43.2727V12.7273L55 28L30 43.2727Z" fill="#D80101"/>
</svg>
