<svg width="60" height="70" viewBox="0 0 60 70" fill="none" xmlns="http://www.w3.org/2000/svg">
<rect width="60" height="60" rx="5" fill="#4F9CFF"/>
<path d="M30.8171 68.8421C30.4187 69.4067 29.5813 69.4067 29.1829 68.8421L21.5862 58.0766C21.1188 57.4141 21.5925 56.5 22.4033 56.5L37.5967 56.5C38.4075 56.5 38.8812 57.4141 38.4138 58.0766L30.8171 68.8421Z" fill="#4F9CFF"/>
<path d="M42 27V22.5C42 21.7044 41.6839 20.9413 41.1213 20.3787C40.5587 19.8161 39.7956 19.5 39 19.5H21C20.2044 19.5 19.4413 19.8161 18.8787 20.3787C18.3161 20.9413 18 21.7044 18 22.5V27C17.2044 27 16.4413 27.3161 15.8787 27.8787C15.3161 28.4413 15 29.2044 15 30V37.5H16.995L18 40.5H19.5L20.505 37.5H39.495L40.5 40.5H42L43.005 37.5H45V30C45 29.2044 44.6839 28.4413 44.1213 27.8787C43.5587 27.3161 42.7956 27 42 27ZM31.5 22.5H39V27H31.5V22.5ZM21 22.5H28.5V27H21V22.5ZM42 34.5H18V30H42V34.5Z" fill="white"/>
</svg>
