<svg width="60" height="70" viewBox="0 0 60 70" fill="none" xmlns="http://www.w3.org/2000/svg">
<rect width="60" height="60" rx="5" fill="#B516FF"/>
<path d="M30.8171 68.8421C30.4187 69.4067 29.5813 69.4067 29.1829 68.8421L21.5862 58.0766C21.1188 57.4141 21.5925 56.5 22.4033 56.5L37.5967 56.5C38.4075 56.5 38.8812 57.4141 38.4138 58.0766L30.8171 68.8421Z" fill="#B516FF"/>
<path d="M30 34C28.3458 34 27 35.3458 27 37C27 38.6542 28.3458 40 30 40C31.6542 40 33 38.6542 33 37C33 35.3458 31.6542 34 30 34ZM30 38.5759C29.131 38.5759 28.4241 37.869 28.4241 37C28.4241 36.131 29.131 35.4241 30 35.4241C30.869 35.4241 31.5759 36.131 31.5759 37C31.5759 37.869 30.869 38.5759 30 38.5759Z" fill="white"/>
<path d="M43.611 36.3313C43.3691 36.1819 43.0671 36.1683 42.8128 36.2954L39.6651 37.8693L36.9708 36.5221V28.2427C36.9708 27.9109 36.771 27.6118 36.4644 27.4849C36.158 27.358 35.805 27.4281 35.5704 27.6627L35.4965 27.7366L30.8203 18.384V16.8203C30.8203 16.3673 30.453 16 30 16C29.547 16 29.1797 16.3673 29.1797 16.8203V18.3839L24.5034 27.7365L24.4295 27.6627C24.195 27.428 23.8421 27.3578 23.5356 27.4848C23.229 27.6118 23.0291 27.9109 23.0291 28.2427V36.5221L20.3349 37.8693L17.1871 36.2954C16.9329 36.1683 16.6308 36.1818 16.389 36.3313C16.1472 36.4808 16 36.7448 16 37.0291V43.1797C16 43.6327 16.3673 44 16.8203 44H43.1797C43.6327 44 44 43.6327 44 43.1797V37.0291C44 36.7448 43.8528 36.4808 43.611 36.3313V36.3313ZM30 20.4119L34.2738 28.9594L33.0752 30.1579L30.58 27.6627C30.2597 27.3424 29.7403 27.3424 29.4199 27.6627L26.9247 30.1579L25.7262 28.9594L30 20.4119ZM17.6406 38.3565L19.9681 39.5202C20.199 39.6356 20.4708 39.6356 20.7018 39.5202L23.0292 38.3565V42.3594H17.6406V38.3565ZM24.6698 37.0291V30.2231L26.3447 31.898C26.665 32.2183 27.1844 32.2183 27.5048 31.898L30 29.4028L32.4952 31.898C32.8155 32.2183 33.335 32.2183 33.6553 31.898L35.3302 30.2231V37.0291V42.3594H24.6698V37.0291ZM42.3594 42.3594H36.9709V38.3565L39.2983 39.5202C39.5292 39.6356 39.801 39.6356 40.032 39.5202L42.3594 38.3565V42.3594Z" fill="white"/>
</svg>
