<svg width="60" height="70" viewBox="0 0 60 70" fill="none" xmlns="http://www.w3.org/2000/svg">
<rect width="60" height="60" rx="5" fill="#FFCC16"/>
<path d="M15 43.5V40.5H42V43.5H15ZM42 24V19.5H39V24H42ZM42 16.5C42.7956 16.5 43.5587 16.8161 44.1213 17.3787C44.6839 17.9413 45 18.7044 45 19.5V24C45 24.7956 44.6839 25.5587 44.1213 26.1213C43.5587 26.6839 42.7956 27 42 27H39V31.5C39 33.0913 38.3679 34.6174 37.2426 35.7426C36.1174 36.8679 34.5913 37.5 33 37.5H24C22.4087 37.5 20.8826 36.8679 19.7574 35.7426C18.6321 34.6174 18 33.0913 18 31.5V16.5H42ZM36 19.5H21V31.5C21 32.2956 21.3161 33.0587 21.8787 33.6213C22.4413 34.1839 23.2044 34.5 24 34.5H33C33.7956 34.5 34.5587 34.1839 35.1213 33.6213C35.6839 33.0587 36 32.2956 36 31.5V19.5Z" fill="white"/>
<path d="M30.8171 68.8421C30.4187 69.4067 29.5813 69.4067 29.1829 68.8421L21.5862 58.0766C21.1188 57.4141 21.5925 56.5 22.4033 56.5L37.5967 56.5C38.4075 56.5 38.8812 57.4141 38.4138 58.0766L30.8171 68.8421Z" fill="#FFCC16"/>
</svg>
