<svg width="60" height="70" viewBox="0 0 60 70" fill="none" xmlns="http://www.w3.org/2000/svg">
<rect width="60" height="60" rx="5" fill="#FF165C"/>
<path d="M30.8171 68.8421C30.4187 69.4067 29.5813 69.4067 29.1829 68.8421L21.5862 58.0766C21.1188 57.4141 21.5925 56.5 22.4033 56.5L37.5967 56.5C38.4075 56.5 38.8812 57.4141 38.4138 58.0766L30.8171 68.8421Z" fill="#FF165C"/>
<path d="M40.5 21H37.5C37.5 16.8 34.2 13.5 30 13.5C25.8 13.5 22.5 16.8 22.5 21H19.5C17.85 21 16.5 22.35 16.5 24V42C16.5 43.65 17.85 45 19.5 45H40.5C42.15 45 43.5 43.65 43.5 42V24C43.5 22.35 42.15 21 40.5 21ZM30 16.5C32.55 16.5 34.5 18.45 34.5 21H25.5C25.5 18.45 27.45 16.5 30 16.5ZM40.5 42H19.5V24H40.5V42ZM30 30C27.45 30 25.5 28.05 25.5 25.5H22.5C22.5 29.7 25.8 33 30 33C34.2 33 37.5 29.7 37.5 25.5H34.5C34.5 28.05 32.55 30 30 30Z" fill="white"/>
</svg>
