<svg width="25" height="25" viewBox="0 0 25 25" fill="none" xmlns="http://www.w3.org/2000/svg">
<path d="M24.1929 3.88504H22.36V10.1911H23.0929V13.0867H21.6998V3.51889C21.7004 1.57528 20.1246 0 18.181 0H6.59688C4.65382 0 3.078 1.57528 3.078 3.51889V12.9033H1.86833V9.82327H2.63807V3.51889H0.805664V9.82327H1.5754V13.1973H3.078V20.0892C3.078 21.4204 3.81899 22.5807 4.91094 23.1779V24.9995H7.9899V23.6075H16.7142V25H19.7942V23.2132C20.9258 22.6295 21.6998 21.4496 21.6998 20.0886V13.379H23.3863V10.1905H24.1929V3.88504ZM8.35714 0.732311H16.5677V2.63957H8.35714V0.732311ZM9.23646 19.9416H4.69125V17.8901H9.23646V19.9416ZM20.2336 19.9416H15.6884V17.8901H20.2336V19.9416ZM20.2336 13.3432C20.2336 13.3432 19.3537 16.1298 12.316 16.1298C5.2771 16.1298 4.5437 13.3432 4.5437 13.3432V3.66481H20.2336V13.3432Z" fill="#274B87"/>
</svg>
