<svg width="20" height="20" viewBox="0 0 20 20" fill="none" xmlns="http://www.w3.org/2000/svg">
<path d="M14.9074 4.22101C15.6738 4.22101 16.2947 3.60427 16.2947 2.83644V1.38731C16.2947 0.618797 15.6745 0 14.9074 0C14.1402 0 13.5208 0.618111 13.5208 1.38731V2.83713C13.5214 3.60427 14.1409 4.22101 14.9074 4.22101Z" fill="#264B87"/>
<path d="M19.8358 2.39965H17.0433V3.10498C17.0433 4.26909 16.0976 5.21755 14.9315 5.21755C13.7639 5.21755 12.8203 4.26909 12.8203 3.10498V2.39965H7.18516V3.10498C7.18516 4.26909 6.23808 5.21755 5.0726 5.21755C3.90712 5.21755 2.96072 4.26978 2.96072 3.10498V2.39965L0.142822 2.36462V20H1.55211H18.4499L19.8571 19.9959L19.8358 2.39965ZM18.4485 18.5955H1.55211V7.32943H18.4499V18.5955H18.4485Z" fill="#264B87"/>
<path d="M5.05074 4.22101C5.81719 4.22101 6.43874 3.60427 6.43874 2.83644V1.38731C6.43874 0.618111 5.81719 0 5.05074 0C4.28428 0 3.66479 0.618111 3.66479 1.38731V2.83713C3.66479 3.60427 4.28359 4.22101 5.05074 4.22101Z" fill="#264B87"/>
<path d="M9.40823 8.84106H7.18921V10.7998H9.40823V8.84106Z" fill="#264B87"/>
<path d="M12.9982 8.84106H10.7771V10.7998H12.9982V8.84106Z" fill="#264B87"/>
<path d="M16.3235 8.84106H14.1045V10.7998H16.3235V8.84106Z" fill="#264B87"/>
<path d="M9.40823 12.0936H7.18921V14.051H9.40823V12.0936Z" fill="#264B87"/>
<path d="M12.9982 12.0936H10.7771V14.051H12.9982V12.0936Z" fill="#264B87"/>
<path d="M16.3235 12.0936H14.1045V14.051H16.3235V12.0936Z" fill="#264B87"/>
<path d="M9.40823 15.4109H7.18921V17.3682H9.40823V15.4109Z" fill="#264B87"/>
<path d="M5.88244 12.0936H3.66479V14.051H5.88244V12.0936Z" fill="#264B87"/>
<path d="M5.88244 15.4109H3.66479V17.3682H5.88244V15.4109Z" fill="#264B87"/>
<path d="M12.9982 15.4109H10.7771V17.3682H12.9982V15.4109Z" fill="#264B87"/>
<path d="M16.3235 15.4109H14.1045V17.3682H16.3235V15.4109Z" fill="#264B87"/>
</svg>
