<svg width="25" height="25" viewBox="0 0 25 25" fill="none" xmlns="http://www.w3.org/2000/svg">
<path d="M2.30713 23.0168C2.30713 22.7035 2.58645 22.3268 3.37478 22.0053C4.12011 21.7013 5.13562 21.5338 6.14019 21.5338C7.14472 21.5338 8.16024 21.7013 8.90558 22.0053C9.69392 22.3268 9.97324 22.7035 9.97324 23.0168C9.97324 23.3302 9.69391 23.7068 8.90557 24.0284C8.16023 24.3324 7.14472 24.4999 6.14019 24.4999C5.13565 24.4999 4.12014 24.3324 3.3748 24.0284C2.58646 23.7068 2.30713 23.3302 2.30713 23.0168Z" stroke="#274B87"/>
<path d="M6.14136 7.51465C2.76147 7.51465 0.0117188 10.2644 0.0117188 13.6443C0.0117188 15.7428 1.00996 17.999 2.97876 20.3504C4.42827 22.0816 5.85684 23.1941 5.91699 23.2406C5.98301 23.2917 6.06221 23.3173 6.14136 23.3173C6.22051 23.3173 6.29966 23.2917 6.36572 23.2406C6.42583 23.1941 7.85449 22.0816 9.30396 20.3504C11.2728 17.999 12.271 15.7427 12.271 13.6443C12.271 10.2644 9.52124 7.51465 6.14136 7.51465ZM8.43994 13.6443C8.43994 14.9137 7.41084 15.9428 6.14136 15.9428C4.87192 15.9428 3.84282 14.9137 3.84282 13.6443C3.84282 12.3749 4.87192 11.3457 6.14136 11.3457C7.41084 11.3457 8.43994 12.3749 8.43994 13.6443Z" fill="#274B87"/>
<path d="M18.0877 12.7544L18.0877 12.7544C18.6319 12.9761 19.3793 13.1084 20.193 13.1084C21.0067 13.1084 21.7541 12.9761 22.2983 12.7544C22.9585 12.4854 23.1081 12.179 23.1081 11.9994C23.1081 11.8199 22.9585 11.5136 22.2983 11.2445L18.0877 12.7544ZM18.0877 12.7544C17.4274 12.4854 17.2778 12.179 17.2778 11.9994C17.2778 11.8199 17.4274 11.5136 18.0877 11.2445L18.0877 12.7544ZM20.193 10.8905C21.0067 10.8905 21.7541 11.0227 22.2983 11.2445L18.0877 11.2445C18.632 11.0227 19.3794 10.8905 20.193 10.8905Z" stroke="#274B87"/>
<path d="M20.1926 0C17.5481 0 15.3967 2.15146 15.3967 4.7959C15.3967 6.4292 16.1707 8.18159 17.6969 10.0045C18.8168 11.342 19.9218 12.2025 19.9683 12.2385C20.0344 12.2896 20.1135 12.3152 20.1927 12.3152C20.2718 12.3152 20.3509 12.2896 20.417 12.2385C20.4635 12.2025 21.5686 11.342 22.6884 10.0045C24.2147 8.18164 24.9886 6.42925 24.9886 4.7959C24.9885 2.15146 22.8371 0 20.1926 0ZM21.9593 4.7959C21.9593 5.77158 21.1683 6.56255 20.1926 6.56255C19.2169 6.56255 18.426 5.77158 18.426 4.7959C18.426 3.82021 19.2169 3.0293 20.1926 3.0293C21.1683 3.0293 21.9593 3.82021 21.9593 4.7959Z" fill="#274B87"/>
<path d="M11.8265 23.3839C11.6249 23.3839 11.4609 23.2209 11.46 23.019C11.459 22.8165 11.6224 22.6516 11.8249 22.6507L12.3091 22.6485C12.3097 22.6485 12.3102 22.6485 12.3108 22.6485C12.5125 22.6485 12.6765 22.8115 12.6773 23.0135C12.6783 23.216 12.5149 23.3809 12.3124 23.3817L11.8282 23.3839C11.8276 23.3839 11.8271 23.3839 11.8265 23.3839ZM13.7633 23.3751C13.5616 23.3751 13.3977 23.2122 13.3967 23.0102C13.3958 22.8077 13.5592 22.6428 13.7617 22.6419L14.2459 22.6397C14.2464 22.6397 14.247 22.6397 14.2476 22.6397C14.4492 22.6397 14.6132 22.8027 14.6141 23.0047C14.615 23.2072 14.4517 23.3721 14.2492 23.3729L13.765 23.3751C13.7644 23.3751 13.7638 23.3751 13.7633 23.3751ZM15.7001 23.3663C15.4984 23.3663 15.3345 23.2033 15.3335 23.0014C15.3326 22.7989 15.496 22.634 15.6985 22.6331L16.1826 22.6309C16.1832 22.6309 16.1837 22.6309 16.1843 22.6309C16.386 22.6309 16.55 22.7939 16.5509 22.9958C16.5518 23.1983 16.3884 23.3632 16.1859 23.3641L15.7018 23.3663C15.7012 23.3663 15.7006 23.3663 15.7001 23.3663ZM17.6369 23.3575C17.4353 23.3575 17.2713 23.1945 17.2704 22.9926C17.2694 22.7901 17.4328 22.6252 17.6353 22.6243L18.1195 22.6221C18.1201 22.6221 18.1206 22.6221 18.1212 22.6221C18.3229 22.6221 18.4868 22.7851 18.4877 22.9871C18.4886 23.1895 18.3253 23.3544 18.1228 23.3553L17.6386 23.3575C17.638 23.3575 17.6375 23.3575 17.6369 23.3575ZM19.5737 23.3488C19.372 23.3488 19.2081 23.1858 19.2071 22.9838C19.2062 22.7813 19.3696 22.6165 19.5721 22.6156L20.0563 22.6134C20.0568 22.6134 20.0574 22.6134 20.058 22.6134C20.2596 22.6134 20.4236 22.7764 20.4245 22.9783C20.4254 23.1808 20.2621 23.3457 20.0596 23.3466L19.5754 23.3488C19.5748 23.3488 19.5743 23.3488 19.5737 23.3488ZM21.5105 23.34C21.3089 23.34 21.1449 23.177 21.1439 22.9751C21.1429 22.7727 21.3063 22.6078 21.5088 22.6068L21.5774 22.6064C21.7001 22.6059 21.823 22.5972 21.943 22.5806C22.1432 22.5527 22.3286 22.693 22.3564 22.8936C22.384 23.0941 22.244 23.2792 22.0434 23.3069C21.8913 23.3279 21.7356 23.339 21.5808 23.3396L21.5123 23.34C21.5117 23.34 21.5111 23.34 21.5105 23.34ZM23.3343 22.7877C23.2181 22.7877 23.1039 22.7326 23.0327 22.6299C22.9174 22.4635 22.9587 22.2352 23.1251 22.1197C23.2419 22.0388 23.3532 21.948 23.4561 21.85C23.6025 21.7104 23.8346 21.716 23.9744 21.8625C24.114 22.0091 24.1085 22.2412 23.9619 22.3809C23.8316 22.505 23.6907 22.6198 23.5429 22.7223C23.4791 22.7665 23.4064 22.7877 23.3343 22.7877ZM24.4937 21.276C24.4528 21.276 24.4112 21.2691 24.3705 21.2546C24.1798 21.1866 24.0804 20.9769 24.1483 20.7862C24.196 20.6526 24.2334 20.5142 24.2596 20.3747C24.2971 20.1757 24.489 20.0448 24.6877 20.0823C24.8866 20.1197 25.0176 20.3114 24.9801 20.5104C24.9467 20.6874 24.8993 20.863 24.8388 21.0324C24.7855 21.1824 24.6442 21.276 24.4937 21.276ZM24.553 19.3717C24.3937 19.3717 24.2469 19.2669 24.2008 19.1061C24.1617 18.9699 24.1114 18.8355 24.0514 18.7068C23.9658 18.5233 24.0451 18.3052 24.2286 18.2196C24.4123 18.134 24.6302 18.2133 24.7158 18.3968C24.7921 18.5602 24.8559 18.7307 24.9056 18.9038C24.9614 19.0984 24.849 19.3015 24.6544 19.3573C24.6205 19.367 24.5865 19.3717 24.553 19.3717ZM23.4898 17.7902C23.4102 17.7902 23.3301 17.7645 23.2628 17.7113C23.1513 17.6232 23.032 17.5434 22.9085 17.4737C22.7321 17.3744 22.6696 17.1508 22.769 16.9744C22.8684 16.798 23.092 16.7355 23.2683 16.8349C23.4249 16.9231 23.5759 17.0243 23.7171 17.1358C23.876 17.2612 23.9032 17.4918 23.7777 17.6507C23.7054 17.7424 23.5981 17.7902 23.4898 17.7902ZM21.7052 17.1257C21.6997 17.1257 21.6942 17.1256 21.6887 17.1253C21.6477 17.1235 21.6064 17.1226 21.565 17.1226H21.2208C21.0183 17.1226 20.8542 16.9585 20.8542 16.756C20.8542 16.5536 21.0182 16.3894 21.2208 16.3894H21.565C21.6168 16.3894 21.6692 16.3905 21.7211 16.3929C21.9233 16.4018 22.0801 16.573 22.071 16.7753C22.0625 16.9721 21.9002 17.1257 21.7052 17.1257ZM19.7682 17.1227H19.284C19.0815 17.1227 18.9174 16.9586 18.9174 16.7561C18.9174 16.5536 19.0815 16.3895 19.284 16.3895H19.7682C19.9707 16.3895 20.1348 16.5536 20.1348 16.7561C20.1348 16.9585 19.9707 17.1227 19.7682 17.1227ZM17.8314 17.1227H17.3472C17.1447 17.1227 16.9806 16.9586 16.9806 16.7561C16.9806 16.5536 17.1447 16.3895 17.3472 16.3895H17.8314C18.0338 16.3895 18.198 16.5536 18.198 16.7561C18.198 16.9585 18.0338 17.1227 17.8314 17.1227ZM15.8945 17.1227H15.4103C15.2078 17.1227 15.0437 16.9586 15.0437 16.7561C15.0437 16.5536 15.2078 16.3895 15.4103 16.3895H15.8945C16.097 16.3895 16.2611 16.5536 16.2611 16.7561C16.2611 16.9585 16.097 17.1227 15.8945 17.1227ZM14.0269 16.758C13.96 16.758 13.8923 16.7397 13.8316 16.7015C13.6745 16.6023 13.5268 16.4866 13.3926 16.3576C13.2467 16.2173 13.2422 15.9852 13.3826 15.8393C13.5228 15.6935 13.7549 15.6889 13.9009 15.8292C13.9993 15.9238 14.1076 16.0087 14.2228 16.0813C14.3941 16.1894 14.4454 16.4158 14.3373 16.587C14.2675 16.6975 14.1485 16.758 14.0269 16.758ZM12.9614 15.205C12.7894 15.205 12.636 15.0835 12.6019 14.9085C12.5683 14.736 12.5513 14.5589 12.5513 14.3818L12.5514 14.3529C12.5538 14.152 12.7174 13.9906 12.9179 13.9906C12.9194 13.9906 12.9209 13.9906 12.9223 13.9906C13.1248 13.993 13.287 14.159 13.2846 14.3614L13.2845 14.3818C13.2845 14.5119 13.297 14.6419 13.3216 14.7682C13.3603 14.9669 13.2306 15.1594 13.0319 15.1981C13.0082 15.2028 12.9846 15.205 12.9614 15.205ZM13.362 13.3651C13.2879 13.3651 13.2132 13.3427 13.1484 13.2962C12.984 13.1781 12.9464 12.9491 13.0645 12.7846C13.173 12.6335 13.2973 12.4931 13.434 12.367C13.5829 12.2298 13.8148 12.2392 13.952 12.3879C14.0893 12.5368 14.0799 12.7687 13.9311 12.906C13.8309 12.9984 13.7397 13.1015 13.6601 13.2124C13.5884 13.312 13.4761 13.3651 13.362 13.3651ZM14.9759 12.395C14.7949 12.395 14.6375 12.261 14.6129 12.0767C14.5862 11.876 14.7273 11.6916 14.928 11.6649C15.0478 11.649 15.1703 11.6409 15.2921 11.6409H15.4595C15.662 11.6409 15.8261 11.805 15.8261 12.0075C15.8261 12.21 15.662 12.3741 15.4595 12.3741H15.2921C15.2025 12.3741 15.1125 12.38 15.0247 12.3917C15.0083 12.3939 14.992 12.395 14.9759 12.395Z" fill="#274B87"/>
</svg>
