<svg width="22" height="22" viewBox="0 0 22 22" fill="none" xmlns="http://www.w3.org/2000/svg">
<circle cx="11" cy="11" r="11" fill="#D1D3D7"/>
<path d="M10.0111 12.6069C10.0111 11.9169 10.0866 11.3674 10.2375 10.9583C10.3885 10.5493 10.6637 10.1476 11.0633 9.75336C11.4673 9.35417 11.7358 9.03136 11.869 8.78495C12.0022 8.5336 12.0688 8.26994 12.0688 7.99395C12.0688 7.16107 11.7225 6.74462 11.03 6.74462C10.7014 6.74462 10.4373 6.85797 10.2375 7.08468C10.0422 7.30645 9.94007 7.61447 9.93119 8.00874H8C8.00888 7.06743 8.28191 6.33065 8.81909 5.79839C9.36071 5.26613 10.0977 5 11.03 5C11.9711 5 12.7014 5.25381 13.2209 5.76142C13.7403 6.26411 14 6.97625 14 7.89785C14 8.31676 13.9156 8.71349 13.7469 9.08804C13.5782 9.45766 13.283 9.86918 12.8613 10.3226L12.3219 10.8918C11.9845 11.2516 11.7913 11.6729 11.7425 12.1559L11.7159 12.6069H10.0111ZM9.81798 14.8763C9.81798 14.5461 9.91787 14.2751 10.1176 14.0632C10.3219 13.8463 10.5816 13.7379 10.8968 13.7379C11.212 13.7379 11.4695 13.8463 11.6693 14.0632C11.8735 14.2751 11.9756 14.5461 11.9756 14.8763C11.9756 15.2016 11.8757 15.4702 11.6759 15.6821C11.4806 15.894 11.2209 16 10.8968 16C10.5727 16 10.3108 15.894 10.111 15.6821C9.91565 15.4702 9.81798 15.2016 9.81798 14.8763Z" fill="#264B87"/>
</svg>
