<svg width="25" height="25" viewBox="0 0 25 25" fill="none" xmlns="http://www.w3.org/2000/svg">
<path d="M23.4509 9.54219C23.4341 9.5228 23.4198 9.50392 23.3999 9.48504L22.5238 8.6396C23.2504 8.4748 24.0326 7.8661 24.0326 7.24158C24.0326 6.514 23.0228 6.25583 22.161 6.25583C21.26 6.25583 21.1554 6.8732 21.1447 7.30944L18.8843 5.13027C18.4251 4.67566 17.5541 4.31799 16.9031 4.31799H12.5008H12.4997H8.09641C7.44586 4.31799 6.5754 4.67566 6.11568 5.13027L3.85585 7.30944C3.84411 6.8732 3.73951 6.25583 2.83946 6.25583C1.97665 6.25583 0.967406 6.514 0.967406 7.24158C0.967406 7.8661 1.75011 8.4748 2.47668 8.6396L1.60061 9.48504C1.58071 9.50392 1.56693 9.5228 1.54958 9.54219C0.612282 10.3432 0 11.829 0 12.9071V16.1108C0 16.8884 0.306651 17.594 0.80209 18.1201V19.3625C0.80209 20.089 1.41029 20.6814 2.1583 20.6814H3.79819C4.5462 20.6814 5.15389 20.0901 5.15389 19.3625V19.0446H12.4997H12.5008H19.8461V19.3625C19.8461 20.0901 20.4533 20.6814 21.2023 20.6814H22.8417C23.5902 20.6814 24.1974 20.089 24.1974 19.3625V18.1201C24.6933 17.594 24.9995 16.8884 24.9995 16.1108V12.9071C25.0005 11.829 24.3882 10.3432 23.4509 9.54219ZM6.94583 6.09868C7.26371 5.83387 7.81936 5.63284 8.09641 5.63284H12.4997H12.5008H16.9041C17.1812 5.63284 17.7368 5.83387 18.0547 6.09868L21.0186 8.97124H12.5008H12.4997H3.98239L6.94583 6.09868ZM1.0169 12.4224C1.0169 11.6336 1.63428 10.9933 2.39657 10.9933C3.15836 10.9933 5.64779 12.4545 5.64779 13.2434C5.64779 14.0322 3.15836 13.8495 2.39657 13.8495C1.63428 13.8495 1.0169 13.2117 1.0169 12.4224ZM5.1544 17.64H4.89163H4.62885L3.07009 17.6425C2.63741 17.5078 2.33229 17.3507 2.11646 17.1818C2.00727 17.0966 1.92359 17.0078 1.85828 16.9195C1.79246 16.8302 1.74449 16.7425 1.71337 16.6547C1.51948 16.1067 1.92002 15.6031 1.92002 15.6031H4.58038L6.35396 17.6389L5.1544 17.64ZM16.3255 17.641H12.5008H12.4997H8.67502C7.87752 17.641 7.23003 16.9935 7.23003 16.1965H12.4997H12.5008H17.7705C17.7705 16.9945 17.123 17.641 16.3255 17.641ZM16.6612 15.2108H12.5008H12.4997H8.33928C7.47188 15.2108 6.76776 14.1414 6.76776 12.8224H12.4997H12.5008H18.2327C18.2327 14.1419 17.5286 15.2108 16.6612 15.2108ZM23.2876 16.6557C23.256 16.7435 23.208 16.8313 23.1422 16.92C23.0774 17.0083 22.9938 17.0971 22.8841 17.1823C22.6687 17.3512 22.3631 17.5093 21.9304 17.643L20.3717 17.6405H20.1089H19.8461H18.6455L20.4201 15.6047H23.08C23.08 15.6042 23.481 16.1067 23.2876 16.6557ZM22.6039 13.8495C21.8427 13.8495 19.3532 14.0311 19.3532 13.2434C19.3532 12.4556 21.8427 10.9933 22.6039 10.9933C23.3662 10.9933 23.9836 11.6336 23.9836 12.4224C23.9836 13.2107 23.3662 13.8495 22.6039 13.8495Z" fill="#274B87"/>
</svg>
