<svg width="32" height="32" viewBox="0 0 32 32" fill="none" xmlns="http://www.w3.org/2000/svg">
<circle cx="16" cy="16" r="16" fill="none"/>
<circle cx="16" cy="16" r="16" fill="url(#paint0_linear)"/>
<g clip-path="url(#clip0)">
<path d="M23.2696 20.9888C23.0405 21.0296 22.9031 21.1367 22.6629 21.3368C22.3216 21.6213 21.8542 22.0108 20.9898 22.0108C20.1253 22.0108 19.658 21.6213 19.3167 21.3368C19.0337 21.1009 18.8778 20.971 18.4946 20.971C18.1116 20.971 17.9557 21.1009 17.6727 21.3368C17.3315 21.6212 16.8642 22.0108 15.9998 22.0108C15.1354 22.0108 14.668 21.6212 14.3268 21.3368C14.0438 21.1009 13.8879 20.971 13.5049 20.971C13.1218 20.971 12.9659 21.1009 12.683 21.3368C12.3418 21.6212 11.8745 22.0108 11.0101 22.0108C10.1457 22.0108 9.67839 21.6212 9.33718 21.3368C9.09699 21.1365 8.95944 21.0295 8.73041 20.9888L6.8667 23.9087H14.123V27.2001H17.8771V23.9087H25.1332L23.2696 20.9888Z" fill="white"/>
<path d="M23.7713 17.9279L20.1038 12.6865H22.1622L15.9999 4.79999L9.83769 12.6864H11.896L8.22852 17.9279H10.6837L9.4673 19.8337C9.77259 19.97 9.99624 20.1557 10.1881 20.3157C10.471 20.5516 10.6269 20.6815 11.0099 20.6815C11.393 20.6815 11.5488 20.5516 11.8318 20.3157C12.173 20.0313 12.6403 19.6417 13.5047 19.6417C14.3691 19.6417 14.8364 20.0313 15.1777 20.3157C15.4607 20.5516 15.6165 20.6815 15.9996 20.6815C16.3827 20.6815 16.5385 20.5516 16.8215 20.3157C17.1628 20.0313 17.6301 19.6417 18.4945 19.6417C19.3589 19.6417 19.8263 20.0312 20.1676 20.3157C20.4506 20.5516 20.6065 20.6815 20.9897 20.6815C21.3728 20.6815 21.5288 20.5516 21.8118 20.3157C22.0036 20.1558 22.2272 19.9701 22.5324 19.8339L21.3159 17.928H23.7713V17.9279Z" fill="white"/>
</g>
<defs>
<linearGradient id="paint0_linear" x1="0" y1="0" x2="32" y2="32" gradientUnits="userSpaceOnUse">
<stop stop-color="#A6D549"/>
<stop offset="0.927083" stop-color="#78A129"/>
</linearGradient>
<clipPath id="clip0">
<rect width="22.4" height="22.4" fill="white" transform="translate(4.7998 4.79999)"/>
</clipPath>
</defs>
</svg>
