<svg width="32" height="32" viewBox="0 0 32 32" fill="none" xmlns="http://www.w3.org/2000/svg">
<circle cx="16" cy="16" r="16" fill="none"/>
<circle cx="16" cy="16" r="16" fill="url(#paint0_linear)"/>
<g clip-path="url(#clip0)">
<path d="M7.73172 12.9802C7.52966 13.1409 7.24831 13.1919 6.99193 13.0881C6.61312 12.9346 6.43038 12.5033 6.58379 12.1244L7.83032 9.04606C7.93064 8.80085 8.09536 8.57052 8.31696 8.39335C8.49084 8.25439 8.68475 8.15729 8.88631 8.10077L9.3165 7.34251C9.37431 7.24062 9.4893 7.18524 9.605 7.20363C9.7207 7.22202 9.81286 7.31024 9.83633 7.42509L9.93615 7.91373L10.5558 7.38759C10.6452 7.31167 10.7721 7.29929 10.8745 7.35618C10.9769 7.41321 11.0332 7.52777 11.0158 7.64368L10.8064 9.03411L12.8075 13.3637L13.2123 13.3988C13.2114 13.4191 13.2092 13.439 13.2092 13.4595V14.3638C13.2092 15.9716 14.5172 17.2796 16.125 17.2796C17.7329 17.2796 19.0409 15.9716 19.0409 14.3638V13.9054L19.6164 13.9554C19.891 13.979 20.1506 14.0614 20.3831 14.1888C20.5443 13.4043 20.9662 12.1514 22.0581 11.5076C22.3318 11.3462 22.6809 11.3925 22.9025 11.6203C23.2452 11.9726 23.6966 12.5905 23.6996 13.4041C23.7008 13.7298 23.4746 14.0107 23.1563 14.0799C22.5681 14.2078 21.5778 14.4655 21.0812 14.8343C21.1748 14.9773 21.25 15.1336 21.3039 15.3005C21.353 15.3965 21.393 15.4988 21.4223 15.6069L22.943 21.219C22.9993 21.219 24.0893 20.7312 24.1408 20.7081C24.3089 20.6331 24.679 20.43 25.0859 20.6833C25.4695 20.9223 25.5868 21.427 25.3479 21.8106C23.5525 24.6946 19.6934 26.3748 16.1217 26.4001C12.0428 26.3709 8.53134 24.3779 6.88174 21.7988C6.75001 21.5899 6.71287 21.3198 6.80868 21.0718C6.95157 20.7021 7.37252 20.423 7.91097 20.6313C7.91497 20.6328 8.75358 20.9957 9.23864 21.1939L10.2858 17.3295C9.9705 16.8608 9.80685 16.2855 9.85959 15.679C9.88485 15.3886 9.95826 15.114 10.0702 14.8617L8.8119 12.1166L7.73172 12.9802ZM16.1218 22.6241C18.1145 22.6126 19.7764 22.2975 21.5741 21.7204L19.2064 17.8818L12.6337 18.453C12.6279 18.4535 12.6216 18.4537 12.6155 18.4542L10.6122 21.7021C12.361 22.2704 14.0412 22.6122 16.1218 22.6241Z" fill="white"/>
<path d="M16.1252 16.2061C15.1076 16.2061 14.2827 15.3813 14.2827 14.3636V13.4593C14.2827 13.2547 14.4486 13.0887 14.6534 13.0887H17.5971C17.8018 13.0887 17.9678 13.2546 17.9678 13.4593V14.3636C17.9677 15.3813 17.1428 16.2061 16.1252 16.2061Z" fill="white"/>
</g>
<defs>
<linearGradient id="paint0_linear" x1="0" y1="0" x2="32" y2="32" gradientUnits="userSpaceOnUse">
<stop stop-color="#676EB2"/>
<stop offset="0.927083" stop-color="#40456D"/>
</linearGradient>
<clipPath id="clip0">
<rect width="19.2" height="19.2" fill="white" transform="matrix(-1 0 0 1 25.6001 7.20001)"/>
</clipPath>
</defs>
</svg>
