<svg width="32" height="32" viewBox="0 0 32 32" fill="none" xmlns="http://www.w3.org/2000/svg">
<circle cx="16" cy="16" r="16" fill="none"/>
<circle cx="16" cy="16" r="16" fill="url(#paint0_linear)"/>
<g clip-path="url(#clip0)">
<path fill-rule="evenodd" clip-rule="evenodd" d="M23.7614 21.3436C23.1071 22.7924 22.079 24.0074 21.0508 25.1758C19.8702 26.2056 18.5006 26.8035 17.0363 27.0563C17.1901 27.0152 17.3443 26.9648 17.4986 26.9045C19.1343 26.2503 20.583 24.6146 20.583 22.792C20.6297 21.6237 20.1624 20.4554 19.4147 19.5674C19.3679 20.4554 18.8539 21.2966 18.1529 21.8106C18.7604 20.5488 18.9474 19.0533 18.6202 17.6981C18.2931 16.3428 17.4986 15.081 16.377 14.2398C16.6574 15.4549 16.1901 16.67 15.5826 17.7448C15.325 18.1807 15.0339 18.6081 14.7413 19.0378C14.3435 19.6218 13.9429 20.21 13.6198 20.8292C13.059 21.9508 12.7318 23.2594 13.1992 24.381C12.3131 23.5882 11.8458 22.1904 12.0296 20.2805C12.0264 20.2962 12.0169 20.3057 12.0074 20.3151C11.9958 20.3268 11.9841 20.3385 11.9841 20.3619C10.2077 23.3225 12.6326 27.0166 15.7382 27.1915C14.8768 27.2256 13.9937 27.1558 13.1061 26.9983C11.4704 26.4375 9.97492 25.4094 9.04027 23.9607C8.24582 22.7456 7.87196 21.2502 7.68502 19.8014C7.54482 18.4929 7.49811 17.1376 7.73176 15.8291C7.96542 14.5205 8.43276 13.4924 9.27397 12.4642C9.04031 13.3522 9.18051 14.2868 9.46091 15.1748C9.69519 15.9166 10.06 16.5933 10.4189 17.2592C10.4896 17.3903 10.5601 17.521 10.6293 17.6517C10.676 16.1095 11.4238 14.7074 12.2182 13.3522C12.3559 13.1172 12.4965 12.8837 12.6369 12.6503C13.3065 11.5376 13.9735 10.4291 14.3212 9.19294C14.7418 7.69744 14.6016 5.92159 13.5268 4.79999C15.6765 5.59444 17.7328 6.76283 19.2282 8.53869C20.7237 10.3145 21.4714 12.7447 21.0041 14.9879C21.7985 14.0999 22.2191 12.8849 22.1257 11.7165C23.2006 13.0718 23.9483 14.6607 24.2754 16.3431C24.6026 18.0256 24.4156 19.8014 23.7614 21.3436ZM12.0308 20.2684C12.0304 20.2725 12.03 20.2765 12.0296 20.2805C12.0304 20.2769 12.0308 20.2729 12.0308 20.2684Z" fill="white"/>
</g>
<defs>
<linearGradient id="paint0_linear" x1="0" y1="0" x2="32" y2="32" gradientUnits="userSpaceOnUse">
<stop stop-color="#F9D25D"/>
<stop offset="0.927083" stop-color="#FEA551"/>
</linearGradient>
<clipPath id="clip0">
<rect width="22.4" height="22.4" fill="white" transform="matrix(-1 0 0 1 27.2002 4.79999)"/>
</clipPath>
</defs>
</svg>
