<svg width="32" height="32" viewBox="0 0 32 32" fill="none" xmlns="http://www.w3.org/2000/svg">
<circle cx="16" cy="16" r="16" fill="none"/>
<circle cx="16" cy="16" r="16" fill="url(#paint0_linear)"/>
<circle cx="16" cy="16" r="16" fill="url(#paint1_linear)"/>
<circle cx="16" cy="16" r="16" fill="none"/>
<circle cx="16" cy="16" r="16" fill="none"/>
<circle cx="16" cy="16" r="16" fill="url(#paint3_linear)"/>
<g clip-path="url(#clip0)">
<path d="M30.6264 6.69296L25.3078 1.37433C23.4752 -0.459178 20.4923 -0.457365 18.6597 1.37433L1.37523 18.6587C-0.456458 20.4913 -0.456458 23.4742 1.37523 25.3068L6.69387 30.6254C7.61012 31.5417 8.81381 31.9999 10.0174 31.9999C11.222 31.9999 12.4257 31.5417 13.3419 30.6254L30.6264 13.341C32.4581 11.5085 32.4581 8.52546 30.6264 6.69296Z" fill="#F5695A"/>
<path d="M14.847 23.7333C14.6661 24.095 14.2805 24.3008 13.8728 24.2438L7.35789 23.3128L10.6815 26.6364C11.0487 27.0037 11.0487 27.5986 10.6815 27.9658C10.4978 28.1495 10.2573 28.2413 10.0168 28.2413C9.77628 28.2413 9.53565 28.1495 9.35209 27.9658L4.03432 22.6481C3.74789 22.3616 3.6772 21.9246 3.85801 21.5629C4.03882 21.2012 4.43095 20.9955 4.83214 21.0524L11.3471 21.9834L8.02258 18.6589C7.65533 18.2916 7.65533 17.6967 8.02258 17.3295C8.38983 16.9622 8.98477 16.9622 9.35202 17.3295L14.6707 22.6481C14.9572 22.9346 15.0278 23.3716 14.847 23.7333Z" fill="white"/>
<path d="M19.9886 18.6588L17.3297 21.3186C17.1461 21.5022 16.9055 21.594 16.665 21.594C16.4245 21.594 16.1839 21.5022 16.0003 21.3186L10.6817 16C10.3144 15.6327 10.3144 15.0378 10.6817 14.6705L13.3415 12.0116C13.7088 11.6444 14.3037 11.6444 14.6709 12.0116C15.0382 12.3789 15.0382 12.9738 14.6709 13.3411L12.676 15.3353L14.0058 16.6651L16.0004 14.6705C16.3676 14.3032 16.9626 14.3032 17.3298 14.6705C17.6971 15.0377 17.6971 15.6327 17.3298 15.9999L15.3352 17.9945L16.665 19.3243L18.6592 17.3293C19.0265 16.9621 19.6214 16.9621 19.9886 17.3293C20.3558 17.6966 20.3558 18.2916 19.9886 18.6588Z" fill="white"/>
<path d="M26.7065 11.9343C26.4605 12.2419 26.0519 12.3621 25.6755 12.2373L23.4711 11.5028L24.2056 13.7081C24.3305 14.0818 24.2093 14.493 23.9026 14.7391C23.7318 14.8759 23.5234 14.9457 23.314 14.9457C23.1469 14.9457 22.9798 14.9016 22.8301 14.8116L16.1821 10.8224C15.7368 10.5552 15.5926 9.97773 15.8597 9.53248C16.1269 9.08722 16.7053 8.94304 17.1497 9.21016L21.6182 11.892L21.093 10.3137C20.9801 9.97585 21.0682 9.6031 21.3198 9.35154C21.5713 9.09997 21.9441 9.01004 22.2819 9.12479L23.8593 9.64998L21.1784 5.18247C20.9112 4.73722 21.0553 4.15971 21.5007 3.89253C21.9459 3.62628 22.5226 3.76946 22.7906 4.21484L26.779 10.862C26.982 11.1998 26.9526 11.6267 26.7065 11.9343Z" fill="white"/>
</g>
<defs>
<linearGradient id="paint0_linear" x1="0" y1="0" x2="32" y2="32" gradientUnits="userSpaceOnUse">
<stop stop-color="#FF658A"/>
<stop offset="0.927083" stop-color="#CA4767"/>
</linearGradient>
<linearGradient id="paint1_linear" x1="0" y1="0" x2="32" y2="32" gradientUnits="userSpaceOnUse">
<stop stop-color="#9ED658"/>
<stop offset="0.927083" stop-color="#9FD659"/>
</linearGradient>
<linearGradient id="paint2_linear" x1="0" y1="0" x2="32" y2="32" gradientUnits="userSpaceOnUse">
<stop stop-color="#FF658A"/>
<stop offset="0.927083" stop-color="#CA4767"/>
</linearGradient>
<linearGradient id="paint3_linear" x1="0" y1="0" x2="32" y2="32" gradientUnits="userSpaceOnUse">
<stop stop-color="#EBF6FF"/>
<stop offset="0.927083" stop-color="#AFCAE2"/>
</linearGradient>
<clipPath id="clip0">
<rect width="32" height="32" fill="white"/>
</clipPath>
</defs>
</svg>
