<svg width="32" height="32" viewBox="0 0 32 32" fill="none" xmlns="http://www.w3.org/2000/svg">
<circle cx="16" cy="16" r="16" fill="none"/>
<circle cx="16" cy="16" r="16" fill="url(#paint0_linear)"/>
<path d="M7.2002 10.8997C7.2002 9.80166 7.58424 8.91259 8.35234 8.23248C9.12044 7.54417 10.1269 7.20001 11.3718 7.20001C12.6343 7.20001 13.6496 7.54007 14.4177 8.22019C15.1857 8.89211 15.5698 9.80576 15.5698 10.9611V11.8461C15.5698 12.9523 15.1857 13.8414 14.4177 14.5133C13.6496 15.1852 12.6431 15.5212 11.3982 15.5212C10.1446 15.5212 9.12926 15.1852 8.35234 14.5133C7.58424 13.8332 7.2002 12.9195 7.2002 11.7724V10.8997ZM9.74286 11.8461C9.74286 12.3378 9.89295 12.7352 10.1931 13.0384C10.5021 13.3333 10.9038 13.4808 11.3982 13.4808C11.8926 13.4808 12.2855 13.3292 12.5769 13.0261C12.8682 12.7229 13.0139 12.3173 13.0139 11.8092V10.8997C13.0139 10.408 12.8682 10.0106 12.5769 9.70743C12.2855 9.40424 11.8838 9.25265 11.3718 9.25265C10.8862 9.25265 10.4933 9.40424 10.1931 9.70743C9.89295 10.0024 9.74286 10.4162 9.74286 10.9488V11.8461ZM16.4174 20.9662C16.4174 19.86 16.8058 18.9709 17.5827 18.299C18.3597 17.6189 19.3661 17.2788 20.6022 17.2788C21.8558 17.2788 22.8667 17.6148 23.6348 18.2867C24.4117 18.9504 24.8002 19.8682 24.8002 21.04V21.9249C24.8002 23.0229 24.4206 23.912 23.6613 24.5921C22.902 25.2641 21.8911 25.6 20.6286 25.6C19.3573 25.6 18.3376 25.26 17.5695 24.5798C16.8014 23.8997 16.4174 22.9984 16.4174 21.8758V20.9662ZM18.96 21.9249C18.96 22.3756 19.1189 22.7607 19.4368 23.0803C19.7546 23.3999 20.1519 23.5597 20.6286 23.5597C21.7057 23.5597 22.2443 23.0066 22.2443 21.9003V20.9662C22.2443 20.4746 22.0942 20.0812 21.794 19.7863C21.4939 19.4831 21.0966 19.3315 20.6022 19.3315C20.1077 19.3315 19.7105 19.4831 19.4103 19.7863C19.1101 20.0812 18.96 20.4869 18.96 21.0031V21.9249ZM12.1531 24.0144L10.2858 23.0803L19.7016 9.09286L21.5689 10.027L12.1531 24.0144Z" fill="white"/>
<defs>
<linearGradient id="paint0_linear" x1="0" y1="0" x2="32" y2="32" gradientUnits="userSpaceOnUse">
<stop stop-color="#E87D75"/>
<stop offset="0.927083" stop-color="#DE5241"/>
</linearGradient>
</defs>
</svg>
