<svg width="32" height="32" viewBox="0 0 32 32" fill="none" xmlns="http://www.w3.org/2000/svg">
<circle cx="16" cy="16" r="16" fill="none"/>
<circle cx="16" cy="16" r="16" fill="url(#paint0_linear)"/>
<g clip-path="url(#clip0)">
<path d="M9.03352 14.9C8.023 14.9 7.2002 15.7228 7.2002 16.7333V22.6C7.2002 23.6105 8.023 24.4333 9.03352 24.4333H11.2335C11.6464 24.4333 12.0262 24.294 12.3335 24.0623V14.9H9.03352Z" fill="white"/>
<path d="M24.8002 17.65C24.8002 17.2093 24.6257 16.7986 24.3228 16.4958C24.6653 16.121 24.8398 15.6187 24.7921 15.0958C24.7063 14.1638 23.8667 13.4334 22.8796 13.4334H18.3498C18.5742 12.7521 18.9335 11.5032 18.9335 10.5C18.9335 8.90943 17.582 7.56671 16.7335 7.56671C15.9716 7.56671 15.4275 7.99571 15.404 8.01331C15.3175 8.08299 15.2669 8.18859 15.2669 8.30003V10.7868L13.1549 15.362L13.0669 15.4068V23.2666C13.6638 23.5482 14.4191 23.7 14.9002 23.7H21.6315C22.4301 23.7 23.129 23.1618 23.2932 22.4189C23.3775 22.0368 23.3284 21.6518 23.1605 21.3174C23.7024 21.0446 24.0669 20.4866 24.0669 19.85C24.0669 19.5904 24.0075 19.3418 23.8946 19.1167C24.4365 18.8439 24.8002 18.2858 24.8002 17.65Z" fill="white"/>
</g>
<defs>
<linearGradient id="paint0_linear" x1="0" y1="0" x2="32" y2="32" gradientUnits="userSpaceOnUse">
<stop stop-color="#ADC6E5"/>
<stop offset="0.927083" stop-color="#517DAA"/>
</linearGradient>
<clipPath id="clip0">
<rect width="17.6" height="17.6" fill="white" transform="translate(7.2002 7.20001)"/>
</clipPath>
</defs>
</svg>
