<svg width="16" height="16" viewBox="0 0 16 16" fill="none" xmlns="http://www.w3.org/2000/svg">
<path d="M8 16C12.4183 16 16 12.4183 16 8C16 3.58172 12.4183 0 8 0C3.58172 0 0 3.58172 0 8C0 12.4183 3.58172 16 8 16Z" fill="#039BE5"/>
<path d="M3.66069 7.82656L11.374 4.85256C11.732 4.72323 12.0447 4.93989 11.9287 5.48123L11.9294 5.48056L10.616 11.6679C10.5187 12.1066 10.258 12.2132 9.89336 12.0066L7.89336 10.5326L6.92869 11.4619C6.82202 11.5686 6.73202 11.6586 6.52536 11.6586L6.66736 9.62323L10.374 6.27456C10.5354 6.13256 10.338 6.05256 10.1254 6.19389L5.54469 9.07789L3.57002 8.46189C3.14136 8.32589 3.13202 8.03323 3.66069 7.82656V7.82656Z" fill="white"/>
</svg>
