<svg width="16" height="16" viewBox="0 0 16 16" fill="none" xmlns="http://www.w3.org/2000/svg">
<g clip-path="url(#clip0)">
<path d="M9.59992 0H6.39952C3.31124 0 0.798798 2.51244 0.798798 5.60072V8.00103C0.798798 10.1692 2.04924 12.1368 3.9992 13.0623V15.7353C3.9992 15.9674 4.28955 16.0888 4.45449 15.9239L6.77664 13.6018H9.59989C12.6881 13.6018 15.2006 11.0893 15.2006 8.00103V5.60072C15.2006 2.51244 12.6881 0 9.59992 0Z" fill="#665CAC"/>
<path d="M4.7993 13.0623C2.84933 12.1367 1.59889 10.1692 1.59889 8.001V5.60069C1.59889 2.51244 4.11136 0 7.19961 0H6.39952C3.31124 0 0.798798 2.51244 0.798798 5.60072V8.00103C0.798798 10.1692 2.04924 12.1368 3.9992 13.0623V15.7353C3.9992 15.9674 4.28955 16.0888 4.45448 15.9239L4.7993 15.5791V13.0623Z" fill="#523494"/>
<path d="M12.0267 9.94071L11.7869 8.64177C11.767 8.53446 11.6839 8.45005 11.5769 8.42865L9.69107 8.05149C9.60348 8.03405 9.51323 8.0614 9.45013 8.12443L8.68398 8.89062C7.3931 8.31221 6.67666 7.59421 6.04629 6.24793L6.80998 5.48427C6.87301 5.42121 6.90038 5.33077 6.88291 5.24334L6.50576 3.35746C6.48435 3.25049 6.39994 3.1673 6.29263 3.14749L4.9937 2.90774C4.95813 2.90121 4.92151 2.9019 4.8862 2.90993C4.54323 2.98783 4.23029 3.16065 3.9812 3.4098C3.54988 3.84112 3.38504 4.47049 3.50454 5.2299C3.70513 6.50509 4.32988 8.27971 5.48254 9.43699L5.49829 9.45262C6.65466 10.6045 8.42932 11.2293 9.70457 11.4299C9.86523 11.4552 10.0199 11.4677 10.1683 11.4677C10.7213 11.4677 11.1846 11.2933 11.5247 10.9532C11.7738 10.7041 11.9467 10.3911 12.0246 10.0482C12.0325 10.0129 12.0332 9.97634 12.0267 9.94071Z" fill="white"/>
<path d="M6.54944 5.74495L6.81019 5.48417L6.81047 5.48389L6.54941 5.74492L6.54944 5.74495Z" fill="#E5E5E5"/>
<path d="M9.45001 8.1239L9.18671 8.38721L9.18675 8.38725L9.45006 8.12394L9.45001 8.1239Z" fill="#E5E5E5"/>
<path d="M10.6713 10.9646C10.5229 10.9646 10.3682 10.9521 10.2076 10.9268C8.93235 10.7262 7.15769 10.1014 6.00129 8.94951L5.98554 8.93388C4.83288 7.7766 4.20813 6.00198 4.00754 4.72679C3.91101 4.11326 4.00026 3.58466 4.26554 3.17676C4.16394 3.24454 4.0686 3.32229 3.98126 3.40963C3.54994 3.84095 3.3851 4.47032 3.5046 5.22973C3.70519 6.50491 4.32994 8.27954 5.4826 9.43682L5.49835 9.45245C6.65473 10.6043 8.42938 11.2291 9.70463 11.4297C9.86529 11.455 10.02 11.4676 10.1684 11.4676C10.7213 11.4676 11.1846 11.2932 11.5248 10.953C11.6121 10.8657 11.6899 10.7704 11.7576 10.6688C11.4565 10.8647 11.0896 10.9646 10.6713 10.9646Z" fill="#E5E5E5"/>
<path d="M8.53317 4.53394C8.38589 4.53394 8.26648 4.65334 8.26648 4.80062C8.26648 4.9479 8.38589 5.06731 8.53317 5.06731C9.12142 5.06731 9.59998 5.54587 9.59998 6.13412C9.59998 6.27944 9.72135 6.40081 9.86667 6.40081C10.012 6.40081 10.1334 6.27944 10.1334 6.13412C10.1334 5.25175 9.41554 4.53394 8.53317 4.53394Z" fill="white"/>
<path d="M8.53302 3.46729C8.43436 3.46729 8.3348 3.47275 8.23705 3.48354C8.09064 3.49969 7.98505 3.63147 8.00121 3.77791C8.01736 3.92435 8.14942 4.02966 8.29558 4.01375C8.37396 4.0051 8.45383 4.00069 8.53302 4.00069C9.70948 4.00069 10.6666 4.95782 10.6666 6.13429C10.6666 6.21351 10.6622 6.29338 10.6535 6.37176C10.6376 6.51616 10.7449 6.65022 10.8894 6.66613C11.0338 6.68204 11.1678 6.57476 11.1838 6.43029C11.1945 6.33254 11.2 6.23297 11.2 6.13429C11.2 4.66372 10.0036 3.46729 8.53302 3.46729Z" fill="white"/>
<path d="M8.53343 2.40039C8.43812 2.40039 8.34159 2.40402 8.24659 2.41123C8.09971 2.42236 7.98965 2.55048 8.00077 2.69733C8.01187 2.8442 8.14043 2.95427 8.28687 2.94314C8.36852 2.93692 8.45149 2.9338 8.53343 2.9338C10.2982 2.9338 11.7338 4.36948 11.7338 6.1342C11.7338 6.38389 11.705 6.63245 11.6482 6.87295C11.6156 7.01076 11.7005 7.15401 11.8372 7.19145C11.9809 7.23083 12.1331 7.14067 12.1673 6.99564C12.2336 6.71498 12.2672 6.42517 12.2672 6.1342C12.2672 4.07536 10.5923 2.40039 8.53343 2.40039Z" fill="white"/>
</g>
<defs>
<clipPath id="clip0">
<rect width="16" height="16" fill="white"/>
</clipPath>
</defs>
</svg>
