<svg width="16" height="16" viewBox="0 0 16 16" fill="none" xmlns="http://www.w3.org/2000/svg">
<g clip-path="url(#clip0)">
<path d="M7.99568 0.00415424C3.58001 0.00509118 0.0011625 3.58547 0.00209945 8.00114C0.00241176 9.53014 0.441183 11.027 1.26632 12.3142L0.0223999 15.5416C-0.0438421 15.7133 0.0416073 15.9062 0.213256 15.9724C0.251639 15.9872 0.292396 15.9948 0.333528 15.9947C0.371693 15.9949 0.409577 15.9884 0.445462 15.9754L3.77683 14.7861C7.52499 17.1205 12.4559 15.9744 14.7903 12.2262C17.1246 8.47802 15.9786 3.54715 12.2304 1.21278C10.9598 0.421439 9.49258 0.00268636 7.99568 0.00415424Z" fill="#4CAF50"/>
<path d="M11.8075 9.36609C11.8075 9.36609 10.9913 8.96633 10.4803 8.69983C9.90194 8.40201 9.22235 8.95968 8.90253 9.27683C8.4048 9.08563 7.95019 8.79705 7.56533 8.42799C7.1962 8.04319 6.90762 7.58858 6.71648 7.09078C7.03364 6.77031 7.58997 6.09137 7.29349 5.51306C7.0303 5.00136 6.62722 4.18584 6.62722 4.18519C6.57066 4.07294 6.45576 4.00208 6.33006 4.00195H5.66379C4.69349 4.16954 3.988 5.01617 3.99812 6.00077C3.99812 7.04681 5.25004 9.05631 6.09423 9.90112C6.93842 10.7459 8.94788 11.9972 9.99458 11.9972C10.9792 12.0073 11.8258 11.3018 11.9934 10.3316V9.66529C11.9935 9.53824 11.9214 9.42221 11.8075 9.36609Z" fill="#FAFAFA"/>
</g>
<defs>
<clipPath id="clip0">
<rect width="16" height="16" fill="white"/>
</clipPath>
</defs>
</svg>
